<svg width="50" height="50" viewBox="0 0 50 50" fill="none" xmlns="http://www.w3.org/2000/svg">
  <circle cx="25" cy="25" r="23" fill="#f9a8d4"/>
  <path d="M25 2C12.85 2 3 11.85 3 24s9.85 22 22 22 22-9.85 22-22S37.15 2 25 2zm0 40c-9.925 0-18-8.075-18-18 0-9.925 8.075-18 18-18s18 8.075 18 18c0 9.925-8.075 18-18 18z" fill="#db2777"/>
  <path d="M25 8c-8.837 0-16 7.163-16 16s7.163 16 16 16 16-7.163 16-16S33.837 8 25 8zm0 28c-6.627 0-12-5.373-12-12s5.373-12 12-12 12 5.373 12 12-5.373 12-12 12z" fill="#db2777"/>
</svg> 